<svg width="16" height="16" viewBox="0 0 16 16" fill="none" xmlns="http://www.w3.org/2000/svg">
<g clip-path="url(#clip0_17_67)">
<path d="M15.9576 9.38819C16.0867 9.08984 15.9942 8.77038 15.8093 8.13141L14.8646 4.86763C14.5524 3.7891 14.3963 3.24983 14.0099 3.06405C13.6236 2.87827 13.0016 3.11098 11.7577 3.57641C10.5347 4.03398 9.27586 4.26709 8.00888 4.26709C6.7419 4.26709 5.48295 4.03398 4.26001 3.57641C3.01609 3.11099 2.39416 2.87828 2.00778 3.06406C1.62141 3.24984 1.4653 3.7891 1.15315 4.86763L0.208422 8.13142C0.0234794 8.77038 -0.0689928 9.08984 0.0601631 9.38819C0.189319 9.68647 0.468498 9.83696 1.02692 10.1379C3.26314 11.3431 5.6253 11.9619 8.00888 11.9619C9.76073 11.9619 11.501 11.6276 13.1882 10.972C13.2757 10.9379 13.4017 10.8896 13.4626 10.8312C13.5234 10.7727 13.6892 10.7347 13.7363 10.7143L13.858 10.6558C13.9797 10.5682 14.0709 10.5097 14.0709 10.5097L14.2839 10.3636H14.3447C14.3447 10.3636 14.3451 10.3392 14.3751 10.3344C14.5576 10.3052 14.9096 10.1885 14.9626 10.1539C14.9691 10.1496 14.9763 10.1457 14.9908 10.1379C15.5492 9.83696 15.8284 9.68647 15.9576 9.38819Z" fill="#3EE577"/>
<path d="M0.0601422 9.38819C-0.0690203 9.08984 0.0234561 8.77038 0.208407 8.13141L1.15313 4.86763C1.46531 3.7891 1.62141 3.24983 2.00777 3.06405C2.39414 2.87827 3.01609 3.11098 4.26 3.57641C5.48295 4.03398 6.74184 4.26709 8.00882 4.26709C9.2758 4.26709 10.5348 4.03398 11.7577 3.57641C13.0016 3.11099 13.6235 2.87828 14.0099 3.06406C14.3963 3.24984 14.5524 3.7891 14.8645 4.86763L15.8093 8.13142C15.9942 8.77038 16.0867 9.08984 15.9575 9.38819C15.8284 9.68647 15.5492 9.83696 14.9908 10.1379C12.7546 11.3431 10.3924 11.9619 8.00882 11.9619C6.25697 11.9619 4.51673 11.6276 2.82952 10.972C2.74196 10.9379 2.61597 10.8896 2.55513 10.8312C2.4943 10.7727 2.32847 10.7347 2.28137 10.7143L2.1597 10.6558C2.03802 10.5682 1.94677 10.5097 1.94677 10.5097L1.73384 10.3636H1.673C1.673 10.3636 1.67259 10.3392 1.64259 10.3344C1.46008 10.3052 1.10809 10.1885 1.05512 10.1539C1.04861 10.1496 1.04136 10.1457 1.02688 10.1379C0.468494 9.83696 0.189302 9.68647 0.0601422 9.38819Z" fill="#3EE577"/>
<path d="M14.1749 5.30832C14.1749 6.19592 13.4531 6.91546 12.5627 6.91546C11.6723 6.91546 10.9506 6.19592 10.9506 5.30832C10.9506 4.42071 11.6723 3.70117 12.5627 3.70117C13.4531 3.70117 14.1749 4.42071 14.1749 5.30832Z" fill="black"/>
<path d="M4.86691 5.30832C4.86691 6.19592 4.14507 6.91546 3.2547 6.91546C2.36432 6.91546 1.64258 6.19592 1.64258 5.30832C1.64258 4.42071 2.36432 3.70117 3.2547 3.70117C4.14507 3.70117 4.86691 4.42071 4.86691 5.30832Z" fill="black"/>
<path d="M9.58935 7.73004C9.58935 8.13323 9.26248 8.46008 8.85929 8.46008C8.45615 8.46008 8.12927 8.13323 8.12927 7.73004C8.12927 7.32685 8.45615 7 8.85929 7C9.26248 7 9.58935 7.32685 9.58935 7.73004Z" fill="black"/>
<path d="M7.46008 7.73004C7.46008 8.13323 7.1332 8.46008 6.73002 8.46008C6.32687 8.46008 6 8.13323 6 7.73004C6 7.32685 6.32687 7 6.73002 7C7.1332 7 7.46008 7.32685 7.46008 7.73004Z" fill="black"/>
</g>
<defs>
<clipPath id="clip0_17_67">
<rect width="16" height="9" fill="white" transform="translate(0 3)"/>
</clipPath>
</defs>
</svg>
